<svg id="Layer_1" data-name="Layer 1" xmlns="http://www.w3.org/2000/svg" viewBox="0 0 1600 1120"><defs><style>.cls-1{fill:#fff;}</style></defs><path class="cls-1" d="M657.16,1160H528q0-84.81.07-169.62c0-4-.65-5.81-5.18-6.82-82.33-18.37-164.59-37-246.91-55.47a15.44,15.44,0,0,0-9.15.81q-102.39,46.88-204.67,94c-3.82,1.76-5.16,3.76-5.14,8,.19,43,.11,86,.11,129.07H0V40H129.15a9.42,9.42,0,0,1-1.67,2.09c-16,11.07-31.57,22.69-48.06,32.9A79.22,79.22,0,0,0,54.5,98.75c-6.17,9.33-12.12,19-16.51,29.25-5.36,12.52-8.44,26-13.48,38.68-9.73,24.46-4.21,48.48,15.89,65.4q22.29,18.76,44.65,37.44,84.53,70.37,169.05,140.71c9.78,8.15,20.73,10.62,33.07,8.44,12.73-2.24,24.41-7.17,35.43-13.74q74.31-44.28,148.58-88.63c22.11-13.19,43.75-27,61.84-45.65,12.43-12.81,22.53-26.79,24-45.43.37-4.53,1.79-9,2.43-13.47,2.12-15,5.68-30.08,5.77-45.14.11-19.38-6.69-37.3-21.74-50.39-20-17.36-40.76-33.78-61.1-50.72-10.05-8.37-19.9-17-29.84-25.5h674.31q-60,53.72-119.94,107.45c-14.87,13.34-26.1,28.67-30.55,48.9-10.54,47.88-22,95.56-32.94,143.35-6.33,27.56,5,53.46,29.31,67.87Q1055.44,456.71,1138,506c17,10.12,33.88,20.5,51.25,30,23,12.5,46.12,13.35,68.33-2.27C1272.85,523,1287.88,511.89,1303,501q65.7-47,131.41-94c14.74-10.58,23.68-24.49,23.77-43.2,0-7.39-.27-14.8.15-22.17,2-35.35,4.29-70.68,6.38-106,1-16.91,2.24-33.82,2.56-50.75.29-15.78-7.76-32.26-25.21-36.47-1.77-.43-3.33-1.8-4.92-2.84q-64.56-42.09-129.08-84.23c-10.61-6.94-21-14.2-31.49-21.32H1600V1160H1010.31c-11-11.87-21.9-23.79-32.93-35.61-48.7-52.16-98-103.84-145.82-156.75-12.94-14.31-27.19-26.22-42.66-37.19-6.26-4.44-12.66-5.14-18-.86-3.73,3-7.36,6.86-9.42,11.12-16,33-31.49,66.25-47.23,99.37Q685.79,1100.08,657.16,1160ZM591.08,896.09v.22c39.2-1.29,78.42-2.3,117.61-4,28.73-1.23,49.87-14.34,63.19-40.64q42.66-84.24,86.66-167.81c13.61-25.74,13.7-51.87,1.93-76.9-30.41-64.71-62.34-128.7-94-192.83-7.89-16-20.18-28-38.17-31.76-8.57-1.78-17.73-1-26.61-.94-59.61.4-119.21.78-178.82,1.49-21.87.26-43.89,0-65.57,2.5-26.32,3-44.81,18.1-53.77,43.41C386.71,476.5,370.27,524.3,353.5,572c-3.84,10.92-7.28,22.18-12.75,32.29C329,626,325.53,648.68,332.6,672.09c4.24,14,11.2,27.31,17.23,40.8q33.32,74.46,66.82,148.82c10.82,24,34.48,38.48,60.79,37.66C515.32,898.18,553.2,897.17,591.08,896.09Zm654.14,203.82c7.56-.8,15.3-.83,22.65-2.55,25.72-6,51.46-12,76.87-19.14,14.36-4,28.77-9.15,39-21.22,3.81-4.49,7.19-9.35,11-13.82q32.13-37.44,64.36-74.78c7.57-8.81,10.34-19.68,13-30.65,4.25-17.7.48-35.26-.71-52.84-1-14.8-3.64-29.53-4-44.32-.28-12.9-.73-25.75-5.78-37.52a457,457,0,0,0-21.83-43.81c-10.9-19.39-22.19-38.61-34.38-57.21-7.7-11.75-18.43-20.8-32.46-24.88-20.61-6-41.32-11.64-61.83-18-12.69-3.92-25.58-7.82-37.43-13.66a46.91,46.91,0,0,0-34.16-3.57c-28.52,7.37-57,14.92-85.59,22-19.69,4.87-35.36,15.55-47.74,31.28-20.41,26-37.79,54.3-62.7,76.7-9.51,8.55-11.34,21.06-11.54,33.64-.44,26.85-1.2,53.69-1.88,80.53-.23,8.92-1.65,17.93-.75,26.72,1.58,15.6,8.67,29.47,16.66,42.73,15.71,26.08,31.77,52,47.52,78,8.42,13.93,20.75,23.46,35.22,29.7,20.24,8.72,40.93,16.43,61.63,24C1208.05,1093.77,1225.88,1100,1245.22,1099.91Z" transform="translate(0 -40)"/><path d="M1276.61,40c10.49,7.12,20.88,14.38,31.49,21.32q64.49,42.21,129.08,84.23c1.59,1,3.15,2.41,4.92,2.84,17.45,4.21,25.5,20.69,25.21,36.47-.32,16.93-1.56,33.84-2.56,50.75-2.09,35.34-4.35,70.67-6.38,106-.42,7.37-.12,14.78-.15,22.17-.09,18.71-9,32.62-23.77,43.2Q1368.8,454.09,1303,501c-15.16,10.86-30.19,21.92-45.44,32.65-22.21,15.62-45.33,14.77-68.33,2.27-17.37-9.45-34.25-19.83-51.25-30q-82.65-49.15-165.25-98.43c-24.26-14.41-35.64-40.31-29.31-67.87,11-47.79,22.4-95.47,32.94-143.35,4.45-20.23,15.68-35.56,30.55-48.9Q1066.88,93.68,1126.89,40ZM1148.89,54.44l-.93-.53c-.88,1.13-1.82,2.22-2.62,3.41-15,22.24-29.94,44.55-45,66.73-45.67,67-91.19,134.13-137.35,200.8a65.72,65.72,0,0,0-11.8,31.43c-2.71,25.36,12.07,40.44,37.61,38.48,3.6-.27,7.22-.44,10.84-.42,107.79.47,215.59,1.15,323.39,1.33,25.86,0,51.82-.45,77.57-2.7,32.71-2.86,45-30.11,27.27-57.58q-78.33-121-156.65-242.09-12.83-19.8-25.7-39.56a10.56,10.56,0,0,0,1.8,5.75q82.65,142.47,165.22,285a51.74,51.74,0,0,1,5.86,15.3c2.33,11.32-3.2,18.52-14.73,19.63-5.46.52-11,0-16.52,0-39.81.11-79.62.32-119.42.34q-130.56.06-261.12-.08a112.37,112.37,0,0,1-19.32-1.49c-12.72-2.25-18.87-10.53-17-23.24A44.24,44.24,0,0,1,975.84,339q84.86-139.84,170.07-279.46C1146.94,57.86,1147.9,56.14,1148.89,54.44Zm76,168.89c8.64-8.14,14.59-17.52,16.91-28.86,1.69-8.31.26-16.08-6.31-22-4.78-4.28-9.69-8.61-15.17-11.86a65.3,65.3,0,0,0-17.62-7.48c-11.8-2.85-23,.84-33.75,5.47-14.41,6.2-24.27,23.79-20.76,39.12,2,8.68,6.26,16.85,9.78,26-.37.33-1.79,1.53-3.19,2.77-14,12.42-19.34,36.3-11.12,50.56,11.32,19.61,29.64,27.14,51,26.37,21.88-.8,37.88-14.4,43.8-35.26C1242.35,254.39,1241.85,234.45,1224.92,223.33Zm-9,227.1.57,2.09c-2.25,1.7-4.27,4-6.81,5-11.85,4.51-23.78,8.82-35.81,12.84-6.51,2.17-9.52,5.27-10.43,11.28-1,6.44,2.08,10,7.5,12.36a52.18,52.18,0,0,0,6.31,2.62c25,7,49.63,10,73.2-4.84,4.49-2.83,5.7-7,1.84-10.53-4.87-4.5-11-6.56-17.36-4.91a9.67,9.67,0,0,0-5.89,6.28c-.68,3.61-2.34,5.28-5.36,5.4a188.24,188.24,0,0,1-22-.08c-2.81-.23-5.44-2.72-8.15-4.18,2.3-2,4.33-4.61,7-6,12.17-6.64,24.47-13,36.8-19.35,5-2.57,7.64-6.59,6.79-11.95-.93-5.84-6.25-7.19-11-7.26-21.49-.33-43-.26-64.5-.18-3.86,0-11.31,6.82-10.69,9.74,1,4.66,5,5.85,9.1,6.41a25.1,25.1,0,0,0,7.29.08c10.87-1.78,21.68-3.94,32.57-5.58C1209.81,449.19,1212.94,450.13,1216,450.43Zm130.09-313.82c-5.67-6.47-10.48-12.66-16-18.08-4.58-4.49-5.51-8.33-2.15-14.14,4.29-7.45,2-14.18-5.16-19.14-3.53-2.43-7-1.67-8,2.5a138.23,138.23,0,0,0-3.73,22.42c-.19,3.13,1.86,7,4.06,9.58,14,16.08,28.29,31.89,42.54,47.75,1.37,1.52,2.89,3.49,4.67,3.93a8.46,8.46,0,0,0,6.45-1.06c.89-.68.59-4.21-.34-5.73-2.28-3.71-5.87-6.7-7.7-10.56-1.38-2.9-.84-6.71-1.15-10.12,3.09.49,6.81.06,9.14,1.67,4.8,3.31,9.6,7.16,13.07,11.78A233,233,0,0,1,1398,182.75c3,5.4,1.36,7.45-4.73,7.85-1.5.1-3.38,0-4.38.82-1.17,1-2.43,3.07-2.13,4.32,1.41,5.91,9.27,11.42,14.61,10.72,5.65-.75,9.57-6.78,9.22-14.33-.49-10.45-4.83-19.51-10.66-27.87-9.79-14.06-22.67-25.11-36-35.61C1355.52,122,1347.93,125.1,1346.05,136.61Zm-277.72-11.19q-15,17.05-30,34.22c-10.53,12-21.22,23.88-31.45,36.14-2.85,3.41-6.42,7.74-3.22,12.69,1.5,2.31,8.85-1,12.61-5.36,21.31-24.81,42.69-49.55,63.81-74.51a38.86,38.86,0,0,0,7.19-12.7c1.79-5.48-3.08-9.91-8.85-9a59.85,59.85,0,0,1-6.78.87c-6.48.31-9.86,5.24-7.3,11.17C1065.25,121.18,1066.86,123.11,1068.33,125.42Z" transform="translate(0 -40)"/><path d="M452.58,40c9.94,8.51,19.79,17.13,29.84,25.5,20.34,16.94,41.13,33.36,61.1,50.72,15.05,13.09,21.85,31,21.74,50.39-.09,15.06-3.65,30.1-5.77,45.14-.64,4.51-2.06,8.94-2.43,13.47-1.51,18.64-11.61,32.62-24,45.43-18.09,18.64-39.73,32.46-61.84,45.65Q396.9,360.63,322.6,404.93c-11,6.57-22.7,11.5-35.43,13.74-12.34,2.18-23.29-.29-33.07-8.44q-84.46-70.44-169-140.71Q62.67,250.87,40.4,232.08c-20.1-16.92-25.62-40.94-15.89-65.4C29.55,154,32.63,140.52,38,128c4.39-10.24,10.34-19.92,16.51-29.25A79.22,79.22,0,0,1,79.42,75c16.49-10.21,32.11-21.83,48.06-32.9A9.42,9.42,0,0,0,129.15,40h73.14C173.27,80,145,120.64,115,159.92,95.37,185.54,74.38,210.77,38.65,216c9,4,16.89,1.13,24.32-2.68,20.12-10.33,37.71-24.64,50.77-42.62,31.17-42.91,60.67-87,90.84-130.7H424l27.85,27L432.48,83.86,387.21,40.43l-5.78,6.89,46,58.94,32.67-30.92,49.05,50.36,11.51-12.36c-.87-.75-2.45-2.06-4-3.44q-28.67-25.8-57.28-51.64c-6.59-6-13-12.17-19.43-18.26ZM349.09,139.33a137.58,137.58,0,0,0-8.3-45.66c-4.83-13.21-11.21-25.5-22.68-34.29-11.84-9.06-25.17-8.44-35.51,2.23A54.3,54.3,0,0,0,272,77c-14.68,33.25-13.11,67-1.76,100.75,4.29,12.75,10.79,24.36,21.5,33.09,12.15,9.91,26.68,9.22,37.27-2.31A62,62,0,0,0,338.31,195C346.66,178.66,349.05,161,349.09,139.33ZM91.67,242.64,91,244.21c1.48.77,3,1.54,4.45,2.33,20.59,11.07,41.49,21.6,61.69,33.34,36.67,21.32,67.44,48.68,86.67,87.54,6.13,12.4,13.7,24.09,20.61,36.1a14.72,14.72,0,0,0-1-6c-4.6-14-7.92-28.18-7.31-43.06.77-18.76,9.87-32.38,26.05-37.82,16.74-5.63,33.46-11.47,50.53-15.91,26.24-6.82,52.77-12.53,79.18-18.71a39.21,39.21,0,0,1-4.61.39c-13,1.66-26.09,3-39,5.19-20.9,3.52-41.68,7.76-62.56,11.4-16.47,2.86-32.95,6.05-49.56,7.7-29.93,3-58.12-1.68-81.57-22.68a12.55,12.55,0,0,0-2.33-1.64c-18.25-9.8-36.38-19.85-54.84-29.24C109.11,249,100.24,246.09,91.67,242.64ZM130,95.35c6.65-3.17,12.73-5.76,18.52-8.9,10.15-5.52,13.38-15.14,13.86-25.81.47-10.14-5.61-16.45-15.78-17.13-15.64-1-24.38,5.11-31.52,20.93-.67,1.47-1.24,3.87-2.29,4.14-8.56,2.21-13.79,9-20.4,14C73.38,96.79,71.87,113.7,83.84,134.1c4.49,7.65,12,9.31,19.06,4C117.35,127.2,129.27,114.39,130,95.35Zm79.59,108.74c13.26-50.46,26.28-100,39.43-150-3.2-.19-5.75,0-8.07-.55-5.71-1.48-7.74,1.14-9.52,6.28-13.54,38.93-27.42,77.74-41.17,116.59-2.44,6.88-4.8,13.79-7.3,21Zm308.91,61.52c-12.11,2.95-24.15,4.08-36.27,1.25-28-6.56-45.78-25.45-56.5-50.59-22.95-53.85-44.7-108.21-66.95-162.36-1.2-2.9-2.51-5.76-3.76-8.65a8.8,8.8,0,0,0,.69,5.14c22.22,56.82,44.69,113.54,66.56,170.49,7.42,19.33,20.63,33.11,37.81,43.41C479.2,275.73,499,275.86,518.54,265.61Z" transform="translate(0 -40)"/><path d="M57.14,1160c0-43,.08-86-.11-129.07,0-4.28,1.32-6.28,5.14-8q102.37-46.92,204.67-94a15.44,15.44,0,0,1,9.15-.81c82.32,18.44,164.58,37.1,246.91,55.47,4.53,1,5.19,2.87,5.18,6.82q-.15,84.81-.07,169.62H412.58c2.07-8.75.88-17-4.24-24.45-5.48-7.94-14.88-7.92-20.28.06A28.13,28.13,0,0,0,384,1160H346.3c.07-7.23.58-14.49.09-21.68-.36-5.45,1.74-8.58,5.94-11.75q83.84-63.32,167.51-126.83c3.82-2.87,5-6.64,3-9.66-2.64-3.86-5.66,0-8.09,1.82q-85.68,63.67-171.25,127.53c-3.52,2.63-6.3,3-10.3,1.5q-122.88-45.65-245.85-91.08c-4.28-1.58-8.49-4-12.88-4.38-3.2-.28-6.64,2.17-10,3.4,2.1,1.5,4,3.55,6.33,4.43q70.71,26.52,141.5,52.8c39.71,14.78,79.44,29.5,119.09,44.44,2,.75,4.68,3.19,4.77,5,.39,8.15,0,16.34-.16,24.51H283.44c-1.2-4.12-1.67-8.67-3.75-12.28-5-8.71-15.05-8.71-20,0-2.07,3.61-2.49,8.17-3.65,12.29Zm45.14-55.7c1.1,3.8,1.68,7.21,3.07,10.26,2.42,5.32,6.39,9,12.67,9.07,6.56.09,10.63-3.71,13.22-9.17a22.17,22.17,0,0,0-.71-21.32c-2.67-4.77-6.64-7.86-12.35-7.81s-9.84,3-12.22,8C104.26,1096.8,103.44,1100.73,102.28,1104.3ZM159,1037.92c5.23-1.76,10.35-2.73,14.69-5.11,7.49-4.1,7.39-12,.31-16.91-8-5.5-22.25-5.41-30.23.21-6.82,4.8-7,12.4.26,16.53C148.48,1035.17,153.81,1036.16,159,1037.92Zm143.35,15.31c-5.68,1.91-11.59,3-16.56,5.77-6.5,3.61-6.3,10.23.18,14,10.84,6.29,22.17,6.27,33.1.29,7.3-4,7.26-11.16-.2-14.91C313.92,1055.88,308.18,1055,302.34,1053.23Zm-21.17-82.74c5.55-1.9,11.37-3.08,16.33-5.82,5.64-3.12,5.23-8.52-.1-12.29-7.87-5.56-24.72-5.56-32.52,0-5.43,3.87-5.61,9.52.33,12.67C269.91,967.55,275.38,968.59,281.17,970.49Zm-57.75,31c5.65-2.09,11.24-3.36,15.94-6.13,5-2.92,4.63-8.06.15-11.76-7.4-6.11-24.36-6-31.56.16-4.22,3.62-4.58,8.58.1,11.44C212.56,998,217.93,999.35,223.42,1001.52Zm148,18.91c-5.35,1.7-10.45,2.66-14.91,4.89-5.4,2.7-5.36,7.7-.56,11.33,7.06,5.35,23.74,5.39,31,.08,4.67-3.43,5-8.3-.05-11C382.19,1023.27,376.73,1022.18,371.46,1020.43Zm53.4-11.38c4.56-1.79,9.07-2.86,12.8-5.19,5.07-3.17,4.92-9.12.34-13-6.54-5.52-19.54-5.53-26.07,0-4.69,4-4.89,9.6.24,12.91C415.86,1006.17,420.37,1007.25,424.86,1009.05Z" transform="translate(0 -40)"/><path d="M657.16,1160q28.58-60,57.13-119.92c15.74-33.12,31.27-66.35,47.23-99.37,2.06-4.26,5.69-8.1,9.42-11.12,5.3-4.28,11.7-3.58,18,.86,15.47,11,29.72,22.88,42.66,37.19,47.87,52.91,97.12,104.59,145.82,156.75,11,11.82,22,23.74,32.93,35.61H867.45c-1.89-2-3.48-5.33-5.73-5.86-4.55-1.06-8.28,1.36-10.27,5.86H684.59q13.95-22.56,27.89-45.13c27.63-44.67,55.17-89.4,83.09-133.88,2.86-4.57,7.5-9.37,12.33-11,4.61-1.5,10.54,1.08,15.33,1.78-4.83-14.7-25-34.22-40.71-38.13,2.08,2.22,3.86,4.18,5.71,6.07,8.68,8.87,9.15,13.47,3,24.12-10.14,17.66-20.1,35.42-30.15,53.13q-40.54,71.51-81.1,143Zm117.77-44.81,2.07.35a48.76,48.76,0,0,1,1.34,6.37c.45,5.31.53,10.65,1,15.95a19.27,19.27,0,0,0,9.72,15.29c16.34,10,41,1.35,47.61-16.68,2.36-6.4,1.36-12.23-3.66-16.7-5.7-5.1-12.09-10.51-20.29-6.4-3.37,1.69-7.06,6-7.45,9.51-.5,4.39,4.72,4,8.29,4.57a7.63,7.63,0,0,1,5,3.83c.62,1.4-.23,4.2-1.4,5.51-6.18,6.89-17.88,5-21.27-3.54-1.57-4-2.09-8.46-2.58-12.77-.89-7.79-7.78-15.9-15.2-17.38s-13,1.64-17.45,9.63c-4,7.13-8.17,14.18-11.84,21.47-1.08,2.15-1.8,5.64-.77,7.41a14.21,14.21,0,0,0,7.33,6.12c4.11,1.27,7.43-1.54,9-5.35,2.68-6.68,4.82-13.58,7.33-20.33C772.52,1119.69,773.82,1117.47,774.93,1115.19Zm113.67,4.51c12.66-6.29,24.47-11.85,35.92-18.09,2.27-1.24,4.06-5,4.24-7.71.08-1.32-3.9-3.59-6.35-4.18-2.09-.51-4.91.23-6.91,1.33-17.83,9.78-35.55,19.75-53.29,29.7-1.15.64-2.79,1.28-3.15,2.29-.88,2.5-2,5.46-1.33,7.73.44,1.49,3.77,2.6,6,2.94a7.77,7.77,0,0,0,5.27-1.64c3.29-2.56,5.56-1.33,7.72,1.33,1,1.18,1.7,2.53,2.7,3.67,3.43,4,11,4.45,14.46,1,3.88-3.84,3.49-8.37-.87-12.88A62.89,62.89,0,0,1,888.6,1119.7Z" transform="translate(0 -40)"/><path class="cls-1" d="M336,1160c.13-8.17.55-16.36.16-24.51-.09-1.76-2.77-4.2-4.77-5-39.65-14.94-79.38-29.66-119.09-44.44q-70.77-26.36-141.5-52.8c-2.34-.88-4.23-2.93-6.33-4.43,3.33-1.23,6.77-3.68,10-3.4,4.39.37,8.6,2.8,12.88,4.38q122.94,45.5,245.85,91.08c4,1.49,6.78,1.13,10.3-1.5Q429,1055.5,514.73,991.9c2.43-1.8,5.45-5.68,8.09-1.82,2,3,.84,6.79-3,9.66Q436,1063,352.33,1126.57c-4.2,3.17-6.3,6.3-5.94,11.75.49,7.19,0,14.45-.09,21.68Z" transform="translate(0 -40)"/><path class="cls-1" d="M440,40c6.47,6.09,12.84,12.3,19.43,18.26Q488,84.17,516.72,109.9c1.53,1.38,3.11,2.69,4,3.44L509.19,125.7,460.14,75.34l-32.67,30.92-46-58.94,5.78-6.89,45.27,43.43L451.86,67,424,40Z" transform="translate(0 -40)"/><path class="cls-1" d="M680,1160q40.54-71.49,81.1-143c10-17.71,20-35.47,30.15-53.13,6.11-10.65,5.64-15.25-3-24.12-1.85-1.89-3.63-3.85-5.71-6.07,15.69,3.91,35.88,23.43,40.71,38.13-4.79-.7-10.72-3.28-15.33-1.78-4.83,1.58-9.47,6.38-12.33,11-27.92,44.48-55.46,89.21-83.09,133.88q-14,22.56-27.89,45.13Z" transform="translate(0 -40)"/><path class="cls-1" d="M204.58,40c-30.17,43.65-59.67,87.79-90.84,130.7C100.68,188.68,83.09,203,63,213.32,55.54,217.13,47.63,220,38.65,216c35.73-5.23,56.72-30.46,76.31-56.08C145,120.64,173.27,80,202.29,40Z" transform="translate(0 -40)"/><path class="cls-1" d="M384,1160a28.13,28.13,0,0,1,4.05-24.39c5.4-8,14.8-8,20.28-.06,5.12,7.41,6.31,15.7,4.24,24.45Z" transform="translate(0 -40)"/><path class="cls-1" d="M256,1160c1.16-4.12,1.58-8.68,3.65-12.29,5-8.7,15-8.7,20,0,2.08,3.61,2.55,8.16,3.75,12.28Z" transform="translate(0 -40)"/><path class="cls-1" d="M851.45,1160c2-4.5,5.72-6.92,10.27-5.86,2.25.53,3.84,3.82,5.73,5.86Z" transform="translate(0 -40)"/><path d="M591.08,896.09c-37.88,1.08-75.76,2.09-113.64,3.28-26.31.82-50-13.64-60.79-37.66q-33.5-74.37-66.82-148.82c-6-13.49-13-26.75-17.23-40.8-7.07-23.41-3.61-46.06,8.15-67.81,5.47-10.11,8.91-21.37,12.75-32.29,16.77-47.69,33.21-95.49,50.07-143.14,9-25.31,27.45-40.42,53.77-43.41,21.68-2.46,43.7-2.24,65.57-2.5,59.61-.71,119.21-1.09,178.82-1.49,8.88-.06,18-.84,26.61.94,18,3.73,30.28,15.75,38.17,31.76,31.63,64.13,63.56,128.12,94,192.83,11.77,25,11.68,51.16-1.93,76.9q-44.13,83.48-86.66,167.81c-13.32,26.3-34.46,39.41-63.19,40.64-39.19,1.68-78.41,2.69-117.61,4ZM386.35,626.57l.63,1c1.3-.62,2.64-1.18,3.9-1.88q101.21-56.29,202.4-112.64c8-4.42,15.6-3.45,20.5,4.11a38.14,38.14,0,0,1,5.45,15.15c1.24,9.21,1.23,18.6,1.79,27.91q3.79,63.86,7.62,127.7,2.48,41.6,5,83.2a28.39,28.39,0,0,0,.69-6q.68-116.8,1.23-233.63c.06-14.47,6.1-18.73,19.31-12.81l1.57.7L797,583.6c6.3,2.87,12.65,5.67,19,8.5a42.17,42.17,0,0,0-9.55-6c-52.61-26.57-105.29-53-157.77-79.86A73,73,0,0,1,630,492.53c-8.07-8.25-5.46-18.8,4.79-24a43,43,0,0,0,7.2-4.46q22.48-17.58,44.85-35.35,15.44-12.21,30.83-24.49a12,12,0,0,0-5.8,2.24q-45.18,28.39-90.34,56.84c-14.12,8.93-27.42,9.28-42.78,1.12C541.27,444.57,503,426.2,465.11,407.24a33.33,33.33,0,0,0-3.81-1.4C497.19,429,533.59,451.13,570.14,473c6.46,3.87,10.57,8.77,10.54,16.32,0,7.75-.18,15.05-8.42,20.17C527,537.59,482,566.18,437,594.61Zm2.87,62.21-.63,1.05c1.45,1,2.87,2.11,4.37,3.07q76.91,49.3,153.86,98.52c11.69,7.45,23.91,14.06,35.79,21.23,5.23,3.16,9.72,7.4,9.06,14.09-.63,6.46-4.45,10.82-10.63,13.64-20.59,9.41-41,19.19-61.47,28.83l-38.06,17.94a12.75,12.75,0,0,0,6.7-.69c14.11-4.53,28.25-9,42.3-13.67,19.82-6.65,40.18-12.13,59.18-20.64,22.21-9.95,43.49-9.36,65.15-.43,19.69,8.11,39.13,16.83,58.68,25.27,1.53.66,3.1,1.25,4.66,1.88-9.09-8-18.6-14.91-28.08-21.9-10.71-7.89-21.53-15.64-32.06-23.76s-10.83-16.76-1.12-24.27q80.16-62.06,160.3-124.14c9.09-7,18.13-14.12,27.19-21.18a14.22,14.22,0,0,0-6.62,2.81q-102.22,67.46-204.41,135c-14.36,9.51-28.9,10-43.59,1.62q-97.24-55.29-194.35-110.86C393.39,691,391.29,689.9,389.22,688.78ZM583,687.89c.3-25.77-12.06-41.26-31.08-45.15-6.56-1.34-13.07-.94-18.49,3.4-8.61,6.9-17.07,14-21.58,24.58-3.58,8.39-7.56,16.63-10.56,25.23-5.8,16.61-3.17,23.18,9.87,35.1,20.1,18.38,47.62,9.82,57-8.71C574.68,709.29,582.56,696.81,583,687.89ZM470.63,647c-3.91,1.29-8.31,2.41-12.43,4.17-7.15,3.07-14,6.84-21.22,9.73-5.36,2.15-9.69,5.19-10.23,11s2.61,10.58,7.66,13.7c11.64,7.21,23.28,14.41,35,21.42a26,26,0,0,0,8.9,3.58c2.32.36,6-.19,7.08-1.72a9.1,9.1,0,0,0,.41-7.89,21.54,21.54,0,0,0-7.23-7.63c-7.91-5.25-16.22-9.9-24.21-15-1.55-1-3.5-3.37-3.23-4.69.3-1.49,2.79-2.75,4.55-3.67,2-1,4.64-1.08,6.31-2.43,6.35-5.11,13.31-4.51,20.56-3.06,2.33.47,5,1.09,7.13.47,13.72-4,23.14-12.07,23.91-27.51.58-11.49-2.35-22.25-12.32-29.1-8.28-5.69-27.81-3.63-35.94,2.67-4.33,3.36-5.56,8.35-3.12,13.21,2.35,4.66,6.74,4.77,10.86,3.92,2.63-.54,4.81-3,7.43-3.87,3.4-1.15,7.34-2.88,10.52-2.12,7.16,1.71,10.9,12.17,8.17,20.52-2.2,6.73-9,9.52-16.85,7.16C478.78,648.81,475.06,648.1,470.63,647ZM494.29,525c8.41.14,14.54-7,13.31-13.21-1.48-7.44-.07-9.06,6-13.65,2.89-2.18,6.07-7.52,5.26-10.3-1.51-5.22-6.93-3.68-11.2-2.27-.54.18-1,.52-1.54.74-6.18,2.53-8.34.82-9.4-5.76-1.37-8.55-2.83-17.23-5.68-25.35-2.12-6.05-7.63-6.93-12.44-2.56-3.7,3.36-7.31,7.46-9.28,12-7.44,17-14.25,34.36-21.19,51.63A50.9,50.9,0,0,0,445,526.53c-.34,2-.07,5.12,1.21,6.18s4.32.36,6.15-.51c4.1-2,7.93-4.49,11.85-6.81,5.23-3.1,10.34-6.42,15.69-9.28,3.66-2,6.86-2.56,8.69,3C489.5,521.86,493,523.71,494.29,525Zm220.16,96.16c1.1,1,1.65,1.34,1.86,1.8,6.85,14.36,14,28.62,20.35,43.19,2.37,5.4,6.93,11.77-.95,17a1.64,1.64,0,0,0-.53,1.48c1.55,3.12,2.48,7.38,5,8.94,2.91,1.77,8.23,2.7,10.87,1.18,7-4.05,13.32-9.42,19.6-14.65,4.56-3.81,6.8-11.69,4.63-15.47-3-5.2-8.05-5.78-13.42-5.23-.57,0-1.14,0-1.71.08-4.56.29-7.59-1.72-9.26-6a39.21,39.21,0,0,0-2.8-5.57c-8.15-13.72-16.29-27.44-24.59-41.07a31.88,31.88,0,0,0-5.75-7c-4-3.67-8-3.11-11.07,1.42-3.32,4.87-6.83,9.67-9.45,14.91a19.69,19.69,0,0,0-1.92,10.29c.48,4.85,4.22,6.84,9,6.76,4.19-.07,8.1-.2,8.15-6.06C712.55,625.29,713.68,623.45,714.45,621.14Zm-16.61,110.4a5.88,5.88,0,0,0,3.18-.64c7.5-5.51,15.61-10.49,22-17.09s2.38-15.12-7-16.22c-2.08-.24-4.22-.12-6.25-.55-4.8-1-8.43-3.38-9.23-8.76a10.79,10.79,0,0,0-1.26-3.72c-8.6-14.81-17.16-29.64-25.94-44.34-3.15-5.27-10.25-6.62-13.57-2.37-4.49,5.76-10,11.38-9.82,19.43.07,2.91,1.6,5.79,2.46,8.69,3.29-1.3,7.24-1.86,9.71-4.07,3.67-3.28,5.33-3.93,7.74.53q11.35,21.11,22.08,42.53c1.74,3.49,2.17,7.85-1.77,10.28-4.89,3-3.66,7.07-2.56,11C688.8,730.49,692.36,731.83,697.84,731.54ZM737.3,495.45c1.75.69,3,.86,3.77,1.53,7.1,5.87,10.42,13.83,11.85,22.63.18,1.07-1.56,3.23-2.78,3.57-2.25.63-4.79.13-7.18.38-1.52.16-4.32,1-4.29,1.21.61,4.5.23,10,2.73,13.19,3.92,5,15.71,5.45,21.4,2,1.64-1,3.67-2.91,3.8-4.55,1-11.52,1-22.92-8.4-31.79a110.4,110.4,0,0,1-8.36-8.54c-7.17-8.39-14-17.08-21.3-25.36-6.79-7.69-14.9-13.22-25.86-11.52-2.06.32-4.74,1.94-5.62,3.72-10,20.15,8.29,47.36,31,46.39,8.33-.35,9.05-1.15,8.71-9.46A22,22,0,0,1,737.3,495.45Zm-154-83c-6.18,1.39-12.9,2.6-19.43,4.48-4.52,1.3-6.59,5-4.5,9.38,1.51,3.16,3.68,6.93,6.58,8.36,14.55,7.19,30.24,12.13,45.07,2.7,8.86-5.64,17.57-7,27.23-7.07,1.9,0,3.8-.14,5.7-.32,4.69-.43,8.87-2,9.57-7.26.68-5.08,0-10.34-5.48-12.6-16.51-6.81-33.31-9.86-49.93-.61C593.51,412.07,589.45,415,583.3,412.44Zm153.42,384.8c.18-8.88,3.82-15.55,10.89-20.43,5.1-3.51,9.79-6.64,16.72-3,2.18,1.13,7.48-1.34,9.84-3.68s3.51-6.51,3.77-10c.11-1.39-3.72-4.54-5.48-4.35-4.69.53-10.23,1.21-13.66,4a303.23,303.23,0,0,0-27.48,25.69c-3.93,4.11-6.81,9.6-8.88,15-1.17,3-.65,9.63.73,10.13,3.81,1.37,8.48.54,12.78.22,1.64-.12,3.2-1.23,6.14-2.44-.73,3.59-.53,6.22-1.73,7.73-3.4,4.29-7.51,8-11.08,12.19-1.32,1.54-1.91,3.69-2.83,5.57,2.24,0,4.8.57,6.64-.3,3.22-1.53,6-4,9-6,10-7,20.21-13.62,29.81-21.08,2.62-2,3.39-6.46,5-9.8-3.25.88-6.8,1.2-9.68,2.76-3.61,2-6.67,4.94-10.35,7.77l6.42-14.83C753.12,791.39,746.66,801.75,736.72,797.24Zm-292,12.09.27-1.57,5.89-1.43c13.63-3.24,23.56-16.77,21.3-28.88-.87-4.7-3.06-8.29-7.89-9.37s-8.48,1.64-11.12,5.34c-2,2.77-3.33,6-5,8.94a56.92,56.92,0,0,1-4.1,6.81c-3.52,4.6-7.74,8-13.71,9.53-2.89.76-5.54,4-7.18,6.85-.41.71,3.11,4.48,5.4,5.89,8.73,5.37,17.7,10.36,26.6,15.46,6.42,3.69,12.79,7.5,19.39,10.83,1.6.8,4-.07,6.1-.17-.53-2.44-1-4.89-1.64-7.31-.1-.39-.92-.61-1.4-.9q-13.46-8.05-26.88-16.11C448.73,812,446.76,810.64,444.76,809.33ZM412,511.56c1.79,10.3,3.3,19.07,4.85,27.83,1.45,8.19,4.42,16.59-6.93,21-1.95.76-2.91,5.75-3,8.81,0,1,5,3.69,6.28,3,10.11-5.82,20.1-12,29.6-18.74,2.57-1.84,3.36-6.19,5-9.39-3.81-.34-7.69-1.28-11.42-.86-6,.67-7-.42-7.62-6.29-1.45-13-3.26-25.93-5.72-38.74-1.2-6.25-7.11-7.41-11.79-2.94-3.3,3.15-6.39,6.52-9.5,9.86-1.54,1.65-3.65,3.27-4.18,5.27-.72,2.68-.16,5.7-.14,8.57,2.79-.62,5.77-.84,8.32-2C407.76,516,409.3,513.91,412,511.56Zm365.39-18.62c-10.22-11.74-20.42-23.75-31-35.44-4-4.42-6.77-8.78-6-15.08.32-2.49-.54-5.31-1.5-7.73-1.63-4.13-5.34-5.08-8.73-2.33-3.09,2.5-6.49,5-8.61,8.21-1.8,2.75-3.17,6.85-2.46,9.81.47,1.95,5,2.94,7.65,4.36,2.9,1.54,6.59,2.4,8.59,4.72,14,16.27,27.65,32.84,41.44,49.28a23.51,23.51,0,0,0,4.05,4c4,2.92,8,1.17,8.57-3.77a70.59,70.59,0,0,0,.06-8C789.44,491.5,786.44,489.38,777.35,492.94ZM550.56,879.64c6.3,3.27,10.86,3.07,15,.1,7.45-5.31,16.06-5.56,24.58-5.62,5.15,0,6.48,2.36,4.11,7.08-1.77,3.54-.38,5.42,2.29,7a13.64,13.64,0,0,0,5.24,2.07c13.53,1.52,27,1.18,39.75-4,3.73-1.52,7-4.42,10-7.25,1.06-1,1.46-4.25.65-5.42-3.58-5.13-16.87-4.24-20.41,1.07-4,6-15.65,6.77-20,1-6-7.87-13.94-10.67-23.15-9-10.63,2-21.11,4.79-31.54,7.66C555,874.94,553.31,877.35,550.56,879.64ZM589.87,395c0,.31.07.62.11.93-5.28,1.1-10.52,2.36-15.83,3.27-14.5,2.48-28.65,7.71-43.75,5.55a7,7,0,0,0-4.33,1.05c-1.14.73-2.41,2.21-2.46,3.41-.05,1,1.37,2.5,2.5,3.06a168,168,0,0,0,16,7.35c2.67,1,5.83.73,9.33,1.09-2.71-7.46-1.82-9,5-10.35q23.17-4.67,46.38-9.22c4.78-.93,8.93-2.66,11.57-7.22-21-6.14-26.89-6.38-31.41-1.11Z" transform="translate(0 -40)"/><path d="M1245.22,1099.91c-19.34.12-37.17-6.14-54.83-12.62-20.7-7.6-41.39-15.31-61.63-24-14.47-6.24-26.8-15.77-35.22-29.7-15.75-26.06-31.81-51.94-47.52-78-8-13.26-15.08-27.13-16.66-42.73-.9-8.79.52-17.8.75-26.72.68-26.84,1.44-53.68,1.88-80.53.2-12.58,2-25.09,11.54-33.64,24.91-22.4,42.29-50.74,62.7-76.7,12.38-15.73,28-26.41,47.74-31.28,28.6-7.07,57.07-14.62,85.59-22a46.91,46.91,0,0,1,34.16,3.57c11.85,5.84,24.74,9.74,37.43,13.66,20.51,6.35,41.22,12,61.83,18,14,4.08,24.76,13.13,32.46,24.88,12.19,18.6,23.48,37.82,34.38,57.21a457,457,0,0,1,21.83,43.81c5,11.77,5.5,24.62,5.78,37.52.33,14.79,3,29.52,4,44.32,1.19,17.58,5,35.14.71,52.84-2.63,11-5.4,21.84-13,30.65q-32.15,37.43-64.36,74.78c-3.83,4.47-7.21,9.33-11,13.82-10.25,12.07-24.66,17.18-39,21.22-25.41,7.16-51.15,13.15-76.87,19.14C1260.52,1099.08,1252.78,1099.11,1245.22,1099.91Zm135.65-396.43-1.09-.52c-1.33,2-2.7,4-4,6.11-5.85,9.58-11.53,19.26-17.54,28.73-4.51,7.1-9.91,13.21-19.47,12.71-3-.16-6-.68-9-.68-35.23-.05-70.46,0-105.69-.09a135.7,135.7,0,0,1-20.46-1.38c-10.09-1.58-20.61-2.78-28.63-10.06-14.37-13-28.45-26.42-42.68-39.64-1-.9-2.06-1.65-3.1-2.46,7.12,11,14.74,21.5,22,32.2s15.11,21.57,17.87,34.74a16.2,16.2,0,0,1-.44,8.69c-15.07,39-30.63,77.83-45.38,116.95-3.41,9.06-8.51,15.61-17,19.52-11.55,5.34-23.26,10.33-35,15.33-4.24,1.8-8.65,3.19-13,4.78.09.72.19,1.45.28,2.18,15.31-.71,30.72-.54,45.9-2.37,16.64-2,30.73-1.3,44.64,11.26,25.82,23.3,53.83,44.16,80.74,66.27,11,9,17.38,21,19.27,35.19q2.38,17.83,4.71,35.69c2.4-7.64,4.52-15.21,5.15-22.9,1.31-16,10.58-26.5,22.83-35.05,18.88-13.19,38.11-25.87,56.87-39.23,20.9-14.9,41.47-30.27,62.11-45.54,6.09-4.5,12.13-6.37,19.62-3.1,9.31,4.06,19,7.36,28.46,11-6.16-5.3-12.79-9.7-19.19-14.41-11.79-8.68-20.13-19.55-24.37-34.06-9.69-33.18-20.23-66.12-30.59-99.11-2.27-7.23-5-14.32-7.88-21.35a38.73,38.73,0,0,1-.58-28.92C1371.22,730.49,1376,717,1380.87,703.48Zm-50,318c-3-3.64-.69-7.16,1.78-10.1,7.42-8.81,15.87-16.45,26.87-20.61,3.21-1.21,5.35-3.48,3.77-6.29-.93-1.64-4.56-1.83-7-2.46-.57-.15-1.36.58-2,.92a102.06,102.06,0,0,0-36.5,31.29c-6.63,9.19-5.53,18.53-1.68,28.1a8.17,8.17,0,0,0,3.77,4c8.83,4.08,17.85,5.21,27,.72a125.91,125.91,0,0,0,36-26.83,21.4,21.4,0,0,0,5.92-15.5c0-9.83-8.24-15.54-17.32-11.58-5.73,2.49-11.63,5-16.63,8.68C1346.47,1007.8,1338.94,1014.72,1330.85,1021.48ZM1118.24,817.76c-1.6-6.77-2.73-13.71-5-20.27-1.81-5.3-6.29-9.37-11.91-9.43-8.93-.08-17.73,1.35-24.82,8-18.83,17.72-22.19,42.29-15.33,65.74,1.64,5.59,5.86,8.52,11.83,9.2,12,1.36,21.71-3,29.26-12.08A67.57,67.57,0,0,0,1118.24,817.76Zm6.32,186.55a40.72,40.72,0,0,1,27.07,5.91,51.22,51.22,0,0,0,14.49,6.3c5.37,1.26,11.75,2.7,15.77-3,3.81-5.4.67-10.61-2-15.44-11.14-20-29.92-28.14-51-32.7-3.63,7.16-.85,12.75,6.81,13.61,4,.45,8,.27,12,.43,7.38.31,18,8.28,20.59,15.19,1.12,3,.69,4.93-2.46,6.41-5.34,2.49-9.9,1.14-14.47-1.86-2.68-1.75-5.55-4.26-8.45-4.43C1131,994,1119,994,1107.09,994c-1.39,0-3.61,1.3-3.93,2.43s1,3.13,2.09,4.14c16.17,14.48,32.38,28.93,48.74,43.19,3.11,2.71,7,4.43,12.58,1.81C1156.43,1027.77,1137.43,1019.8,1124.56,1004.31Zm91.26-312.57c2.83.8,4.81,1.4,6.82,1.91,12,3.05,12,3.05,12.72,15.25.56,9.16,5.45,13.59,14.82,13.1a25.77,25.77,0,0,0,8.91-1.62c14.52-6.45,28.92-13.19,43.33-19.88,3.94-1.83,7.41-5.45,5.49-9.18-1.26-2.44-6.74-4.18-10.06-3.81-15.89,1.75-31.27-1.54-46.81-2.83.21-12.53-.76-14.83-7.22-15-3.26-.11-8.3.22-9.5,2.19-2.29,3.79-2.41,8.89-3.54,13.9l-13.73-1C1216.6,687.32,1216.25,689.32,1215.82,691.74Zm216.57,163.94,1.4,1.47c2.73,2.83,5.19,6.8,9.93,4.59s5.21-6.45,4.35-11.18c-2.1-11.57-3.89-23.2-6.09-34.75-2.09-10.95-6-21.25-13.11-30-5.91-7.3-11.27-6.43-15,1.8a5.94,5.94,0,0,1-3.07,3.16c-7.1,1.94-9.81,4.35-10.49,12.14-1.71,19.51,4,37.31,14.75,53.25C1421.18,865.26,1425.55,864.74,1432.39,855.68Zm-291-100.77c-14.75-4.65-28.68-9-42.57-13.44-5.57-1.79-9.18.1-11.48,6.34-2,5.43-.06,10.46,4.83,12.14,11.86,4.08,23.72,8.12,35.63,12a6.83,6.83,0,0,0,4.78,0C1138.24,768.93,1142.07,760.73,1141.35,754.91ZM1415.6,986c-4.52,3.36-8.8,6.25-12.67,9.61-1,.9-.86,3.22-1.23,4.88,2,.22,4.33,1.25,5.79.5a75,75,0,0,0,10.86-7.3c.93-.71,1.84-2.63,1.51-3.53C1419.38,988.85,1417.76,988,1415.6,986Z" transform="translate(0 -40)"/><path class="cls-1" d="M1148.89,54.44c-1,1.7-2,3.42-3,5.1Q1060.82,199.24,975.84,339a44.24,44.24,0,0,0-5.56,15.94c-1.91,12.71,4.24,21,17,23.24a112.37,112.37,0,0,0,19.32,1.49q130.56.15,261.12.08c39.8,0,79.61-.23,119.42-.34,5.51,0,11.06.5,16.52,0,11.53-1.11,17.06-8.31,14.73-19.63a51.74,51.74,0,0,0-5.86-15.3Q1330,201.9,1247.27,59.49a10.56,10.56,0,0,1-1.8-5.75q12.85,19.79,25.7,39.56,78.33,121,156.65,242.09c17.78,27.47,5.44,54.72-27.27,57.58-25.75,2.25-51.71,2.74-77.57,2.7-107.8-.18-215.6-.86-323.39-1.33-3.62,0-7.24.15-10.84.42-25.54,2-40.32-13.12-37.61-38.48a65.72,65.72,0,0,1,11.8-31.43c46.16-66.67,91.68-133.78,137.35-200.8,15.11-22.18,30-44.49,45-66.73.8-1.19,1.74-2.28,2.62-3.41Z" transform="translate(0 -40)"/><path class="cls-1" d="M1224.92,223.33c16.93,11.12,17.43,31.06,13.52,44.83-5.92,20.86-21.92,34.46-43.8,35.26-21.31.77-39.63-6.76-51-26.37-8.22-14.26-2.88-38.14,11.12-50.56,1.4-1.24,2.82-2.44,3.19-2.77-3.52-9.12-7.79-17.29-9.78-26-3.51-15.33,6.35-32.92,20.76-39.12,10.78-4.63,22-8.32,33.75-5.47a65.3,65.3,0,0,1,17.62,7.48c5.48,3.25,10.39,7.58,15.17,11.86,6.57,5.89,8,13.66,6.31,22C1239.51,205.81,1233.56,215.19,1224.92,223.33Zm-35.84,58.1c15.29-.23,28.64-12.26,28.4-25.6-.25-14.18-11.29-24-26.6-23.73-13.94.27-26.26,13.62-26,28.13C1165.19,272.79,1175.27,281.64,1189.08,281.43Zm-.51-110.85a65.36,65.36,0,0,0-8.33,1.8c-11.29,3.72-17.14,15.6-12.9,25.77,3.37,8,13.42,13.95,22.67,13.3,10.51-.74,22.53-9.49,24.38-17.86a12.33,12.33,0,0,0-.06-4.49C1212.59,178.48,1202.2,170.52,1188.57,170.58Z" transform="translate(0 -40)"/><path class="cls-1" d="M1216,450.43c-3-.3-6.15-1.24-9.06-.8-10.89,1.64-21.7,3.8-32.57,5.58a25.1,25.1,0,0,1-7.29-.08c-4.07-.56-8.11-1.75-9.1-6.41-.62-2.92,6.83-9.73,10.69-9.74,21.5-.08,43-.15,64.5.18,4.71.07,10,1.42,11,7.26.85,5.36-1.77,9.38-6.79,11.95-12.33,6.32-24.63,12.71-36.8,19.35-2.63,1.43-4.66,4-7,6,2.71,1.46,5.34,3.95,8.15,4.18a188.24,188.24,0,0,0,22,.08c3-.12,4.68-1.79,5.36-5.4a9.67,9.67,0,0,1,5.89-6.28c6.4-1.65,12.49.41,17.36,4.91,3.86,3.56,2.65,7.7-1.84,10.53-23.57,14.85-48.25,11.81-73.2,4.84A52.18,52.18,0,0,1,1171,494c-5.42-2.34-8.49-5.92-7.5-12.36.91-6,3.92-9.11,10.43-11.28,12-4,24-8.33,35.81-12.84,2.54-1,4.56-3.3,6.81-5Z" transform="translate(0 -40)"/><path class="cls-1" d="M1346.05,136.61c1.88-11.51,9.47-14.64,17.92-8,13.3,10.5,26.18,21.55,36,35.61,5.83,8.36,10.17,17.42,10.66,27.87.35,7.55-3.57,13.58-9.22,14.33-5.34.7-13.2-4.81-14.61-10.72-.3-1.25,1-3.36,2.13-4.32,1-.83,2.88-.72,4.38-.82,6.09-.4,7.76-2.45,4.73-7.85a233,233,0,0,0-16.25-25.34c-3.47-4.62-8.27-8.47-13.07-11.78-2.33-1.61-6-1.18-9.14-1.67.31,3.41-.23,7.22,1.15,10.12,1.83,3.86,5.42,6.85,7.7,10.56.93,1.52,1.23,5.05.34,5.73a8.46,8.46,0,0,1-6.45,1.06c-1.78-.44-3.3-2.41-4.67-3.93-14.25-15.86-28.55-31.67-42.54-47.75-2.2-2.54-4.25-6.45-4.06-9.58a138.23,138.23,0,0,1,3.73-22.42c1-4.17,4.43-4.93,8-2.5,7.2,5,9.45,11.69,5.16,19.14-3.36,5.81-2.43,9.65,2.15,14.14C1335.57,124,1340.38,130.14,1346.05,136.61Z" transform="translate(0 -40)"/><path class="cls-1" d="M1068.33,125.42c-1.47-2.31-3.08-4.24-4-6.46-2.56-5.93.82-10.86,7.3-11.17a59.85,59.85,0,0,0,6.78-.87c5.77-.93,10.64,3.5,8.85,9a38.86,38.86,0,0,1-7.19,12.7c-21.12,25-42.5,49.7-63.81,74.51-3.76,4.38-11.11,7.67-12.61,5.36-3.2-4.95.37-9.28,3.22-12.69,10.23-12.26,20.92-24.13,31.45-36.14Q1053.32,142.5,1068.33,125.42Z" transform="translate(0 -40)"/><path class="cls-1" d="M349.09,139.33c0,21.68-2.43,39.33-10.78,55.62A62,62,0,0,1,329,208.51c-10.59,11.53-25.12,12.22-37.27,2.31-10.71-8.73-17.21-20.34-21.5-33.09C258.86,144,257.29,110.23,272,77A54.3,54.3,0,0,1,282.6,61.61c10.34-10.67,23.67-11.29,35.51-2.23,11.47,8.79,17.85,21.08,22.68,34.29A137.58,137.58,0,0,1,349.09,139.33ZM271.25,130c2.24,11.51,3.91,23.18,6.9,34.49a53.49,53.49,0,0,0,15.05,25.81c10.48,9.82,22.79,9.1,31.67-2.12a40.08,40.08,0,0,0,7-12.28c2.52-7.91,4.93-16.06,5.69-24.28,2.08-22.44-1-44.15-13.69-63.39-13.65-20.7-32.85-19.11-43.69,3.27C274.37,103.6,272.72,116.55,271.25,130Z" transform="translate(0 -40)"/><path class="cls-1" d="M91.67,242.64c8.57,3.45,17.44,6.31,25.65,10.49,18.46,9.39,36.59,19.44,54.84,29.24a12.55,12.55,0,0,1,2.33,1.64c23.45,21,51.64,25.66,81.57,22.68,16.61-1.65,33.09-4.84,49.56-7.7,20.88-3.64,41.66-7.88,62.56-11.4,12.93-2.18,26-3.53,39-5.19a39.21,39.21,0,0,0,4.61-.39c-26.41,6.18-52.94,11.89-79.18,18.71-17.07,4.44-33.79,10.28-50.53,15.91-16.18,5.44-25.28,19.06-26.05,37.82-.61,14.88,2.71,29.08,7.31,43.06a14.72,14.72,0,0,1,1,6c-6.91-12-14.48-23.7-20.61-36.1-19.23-38.86-50-66.22-86.67-87.54-20.2-11.74-41.1-22.27-61.69-33.34-1.47-.79-3-1.56-4.45-2.33Z" transform="translate(0 -40)"/><path class="cls-1" d="M130,95.35c-.77,19-12.69,31.85-27.14,42.72-7.1,5.34-14.57,3.68-19.06-4-12-20.4-10.46-37.31,8.59-51.57,6.61-5,11.84-11.74,20.4-14,1-.27,1.62-2.67,2.29-4.14,7.14-15.82,15.88-22,31.52-20.93,10.17.68,16.25,7,15.78,17.13-.48,10.67-3.71,20.29-13.86,25.81C142.77,89.59,136.69,92.18,130,95.35Zm-41.71,12c1,2.8,1.83,5.67,3,8.37,1.48,3.31,4.07,4.85,7.82,4,9.16-2.16,17.15-13.4,16.21-22.76-.38-3.81-2-6.17-6.06-7C100,87.9,89.1,97,88.33,107.38Zm50.39-30c4.51.11,10.52-6.64,10.52-11.8,0-4.09-5.15-10.12-8.61-10.07-5.69.1-12,5.71-12.08,10.76S133.78,77.22,138.72,77.34Z" transform="translate(0 -40)"/><path class="cls-1" d="M209.63,204.09,183,197.33c2.5-7.16,4.86-14.07,7.3-21,13.75-38.85,27.63-77.66,41.17-116.59,1.78-5.14,3.81-7.76,9.52-6.28,2.32.6,4.87.36,8.07.55C235.91,104.12,222.89,153.63,209.63,204.09Z" transform="translate(0 -40)"/><path class="cls-1" d="M518.54,265.61c-19.58,10.25-39.34,10.12-58.42-1.31-17.18-10.3-30.39-24.08-37.81-43.41C400.44,163.94,378,107.22,355.75,50.4a8.8,8.8,0,0,1-.69-5.14c1.25,2.89,2.56,5.75,3.76,8.65,22.25,54.15,44,108.51,66.95,162.36,10.72,25.14,28.49,44,56.5,50.59C494.39,269.69,506.43,268.56,518.54,265.61Z" transform="translate(0 -40)"/><path class="cls-1" d="M102.28,1104.3c1.16-3.57,2-7.5,3.68-11,2.38-4.92,6.54-7.91,12.22-8s9.68,3,12.35,7.81a22.17,22.17,0,0,1,.71,21.32c-2.59,5.46-6.66,9.26-13.22,9.17-6.28-.1-10.25-3.75-12.67-9.07C104,1111.51,103.38,1108.1,102.28,1104.3Z" transform="translate(0 -40)"/><path class="cls-1" d="M159,1037.92c-5.18-1.76-10.51-2.75-15-5.28-7.25-4.13-7.08-11.73-.26-16.53,8-5.62,22.23-5.71,30.23-.21,7.08,4.88,7.18,12.81-.31,16.91C169.34,1035.19,164.22,1036.16,159,1037.92Z" transform="translate(0 -40)"/><path class="cls-1" d="M302.34,1053.23c5.84,1.75,11.58,2.65,16.52,5.14,7.46,3.75,7.5,10.92.2,14.91-10.93,6-22.26,6-33.1-.29-6.48-3.76-6.68-10.38-.18-14C290.75,1056.24,296.66,1055.14,302.34,1053.23Z" transform="translate(0 -40)"/><path class="cls-1" d="M281.17,970.49c-5.79-1.9-11.26-2.94-16-5.44-5.94-3.15-5.76-8.8-.33-12.67,7.8-5.56,24.65-5.56,32.52,0,5.33,3.77,5.74,9.17.1,12.29C292.54,967.41,286.72,968.59,281.17,970.49Z" transform="translate(0 -40)"/><path class="cls-1" d="M223.42,1001.52c-5.49-2.17-10.86-3.54-15.37-6.29-4.68-2.86-4.32-7.82-.1-11.44,7.2-6.19,24.16-6.27,31.56-.16,4.48,3.7,4.83,8.84-.15,11.76C234.66,998.16,229.07,999.43,223.42,1001.52Z" transform="translate(0 -40)"/><path class="cls-1" d="M371.46,1020.43c5.27,1.75,10.73,2.84,15.44,5.33,5,2.67,4.72,7.54.05,11-7.22,5.31-23.9,5.27-31-.08-4.8-3.63-4.84-8.63.56-11.33C361,1023.09,366.11,1022.13,371.46,1020.43Z" transform="translate(0 -40)"/><path class="cls-1" d="M424.86,1009.05c-4.49-1.8-9-2.88-12.69-5.26-5.13-3.31-4.93-8.95-.24-12.91,6.53-5.52,19.53-5.51,26.07,0,4.58,3.85,4.73,9.8-.34,13C433.93,1006.19,429.42,1007.26,424.86,1009.05Z" transform="translate(0 -40)"/><path class="cls-1" d="M774.93,1115.19c-1.11,2.28-2.41,4.5-3.29,6.86-2.51,6.75-4.65,13.65-7.33,20.33-1.53,3.81-4.85,6.62-9,5.35a14.21,14.21,0,0,1-7.33-6.12c-1-1.77-.31-5.26.77-7.41,3.67-7.29,7.85-14.34,11.84-21.47,4.47-8,10.1-11.1,17.45-9.63s14.31,9.59,15.2,17.38c.49,4.31,1,8.79,2.58,12.77,3.39,8.57,15.09,10.43,21.27,3.54,1.17-1.31,2-4.11,1.4-5.51a7.63,7.63,0,0,0-5-3.83c-3.57-.6-8.79-.18-8.29-4.57.39-3.48,4.08-7.82,7.45-9.51,8.2-4.11,14.59,1.3,20.29,6.4,5,4.47,6,10.3,3.66,16.7-6.66,18-31.27,26.71-47.61,16.68a19.27,19.27,0,0,1-9.72-15.29c-.47-5.3-.55-10.64-1-15.95a48.76,48.76,0,0,0-1.34-6.37Z" transform="translate(0 -40)"/><path class="cls-1" d="M888.6,1119.7a62.89,62.89,0,0,0,4.37,5.51c4.36,4.51,4.75,9,.87,12.88-3.47,3.43-11,2.93-14.46-1-1-1.14-1.74-2.49-2.7-3.67-2.16-2.66-4.43-3.89-7.72-1.33a7.77,7.77,0,0,1-5.27,1.64c-2.19-.34-5.52-1.45-6-2.94-.67-2.27.45-5.23,1.33-7.73.36-1,2-1.65,3.15-2.29,17.74-10,35.46-19.92,53.29-29.7,2-1.1,4.82-1.84,6.91-1.33,2.45.59,6.43,2.86,6.35,4.18-.18,2.71-2,6.47-4.24,7.71C913.07,1107.85,901.26,1113.41,888.6,1119.7Z" transform="translate(0 -40)"/><path class="cls-1" d="M386.35,626.57l50.62-32c45.07-28.43,90-57,135.29-85.14,8.24-5.12,8.39-12.42,8.42-20.17,0-7.55-4.08-12.45-10.54-16.32-36.55-21.85-72.95-44-108.84-67.14a33.33,33.33,0,0,1,3.81,1.4c37.93,19,76.16,37.33,113.59,57.22,15.36,8.16,28.66,7.81,42.78-1.12q45.1-28.53,90.34-56.84a12,12,0,0,1,5.8-2.24q-15.42,12.24-30.83,24.49-22.39,17.72-44.85,35.35a43,43,0,0,1-7.2,4.46c-10.25,5.17-12.86,15.72-4.79,24a73,73,0,0,0,18.69,13.73c52.48,26.84,105.16,53.29,157.77,79.86a42.17,42.17,0,0,1,9.55,6c-6.32-2.83-12.67-5.63-19-8.5L656.42,519.42l-1.57-.7c-13.21-5.92-19.25-1.66-19.31,12.81q-.43,116.82-1.23,233.63a28.39,28.39,0,0,1-.69,6q-2.49-41.6-5-83.2-3.82-63.86-7.62-127.7c-.56-9.31-.55-18.7-1.79-27.91a38.14,38.14,0,0,0-5.45-15.15c-4.9-7.56-12.55-8.53-20.5-4.11q-101.17,56.35-202.4,112.64c-1.26.7-2.6,1.26-3.9,1.88Z" transform="translate(0 -40)"/><path class="cls-1" d="M389.22,688.78c2.07,1.12,4.17,2.21,6.22,3.38Q492.61,747.62,589.79,803c14.69,8.35,29.23,7.89,43.59-1.62q102.12-67.6,204.41-135a14.22,14.22,0,0,1,6.62-2.81c-9.06,7.06-18.1,14.15-27.19,21.18q-80.13,62.09-160.3,124.14c-9.71,7.51-9.49,16.09,1.12,24.27S679.39,849.08,690.1,857c9.48,7,19,13.95,28.08,21.9-1.56-.63-3.13-1.22-4.66-1.88-19.55-8.44-39-17.16-58.68-25.27-21.66-8.93-42.94-9.52-65.15.43-19,8.51-39.36,14-59.18,20.64-14,4.71-28.19,9.14-42.3,13.67a12.75,12.75,0,0,1-6.7.69l38.06-17.94c20.47-9.64,40.88-19.42,61.47-28.83,6.18-2.82,10-7.18,10.63-13.64.66-6.69-3.83-10.93-9.06-14.09-11.88-7.17-24.1-13.78-35.79-21.23q-77-49.08-153.86-98.52c-1.5-1-2.92-2-4.37-3.07Z" transform="translate(0 -40)"/><path class="cls-1" d="M583,687.89c-.42,8.92-8.3,21.4-14.88,34.45-9.34,18.53-36.86,27.09-57,8.71-13-11.92-15.67-18.49-9.87-35.1,3-8.6,7-16.84,10.56-25.23,4.51-10.54,13-17.68,21.58-24.58,5.42-4.34,11.93-4.74,18.49-3.4C570.92,646.63,583.28,662.12,583,687.89Zm-48.77,35.68c4.56-2.05,9.7-3.35,13.59-6.29,14-10.58,18.56-25.74,17.28-42.38-1.05-13.77-15-19.63-26-11.07-12.57,9.81-20.54,22.91-22.15,39.06C515.75,714.89,522.6,722.46,534.21,723.57Z" transform="translate(0 -40)"/><path class="cls-1" d="M470.63,647c4.43,1.06,8.15,1.77,11.75,2.85,7.89,2.36,14.65-.43,16.85-7.16,2.73-8.35-1-18.81-8.17-20.52-3.18-.76-7.12,1-10.52,2.12-2.62.89-4.8,3.33-7.43,3.87-4.12.85-8.51.74-10.86-3.92-2.44-4.86-1.21-9.85,3.12-13.21,8.13-6.3,27.66-8.36,35.94-2.67,10,6.85,12.9,17.61,12.32,29.1-.77,15.44-10.19,23.55-23.91,27.51-2.16.62-4.8,0-7.13-.47-7.25-1.45-14.21-2-20.56,3.06-1.67,1.35-4.31,1.4-6.31,2.43-1.76.92-4.25,2.18-4.55,3.67-.27,1.32,1.68,3.69,3.23,4.69,8,5.14,16.3,9.79,24.21,15a21.54,21.54,0,0,1,7.23,7.63,9.1,9.1,0,0,1-.41,7.89c-1.05,1.53-4.76,2.08-7.08,1.72a26,26,0,0,1-8.9-3.58c-11.76-7-23.4-14.21-35-21.42-5.05-3.12-8.21-7.79-7.66-13.7s4.87-8.88,10.23-11c7.21-2.89,14.07-6.66,21.22-9.73C462.32,649.45,466.72,648.33,470.63,647Z" transform="translate(0 -40)"/><path class="cls-1" d="M494.29,525c-1.31-1.27-4.79-3.12-5.67-5.82-1.83-5.61-5-5-8.69-3-5.35,2.86-10.46,6.18-15.69,9.28-3.92,2.32-7.75,4.85-11.85,6.81-1.83.87-5,1.47-6.15.51s-1.55-4.15-1.21-6.18a50.9,50.9,0,0,1,3.12-10.32c6.94-17.27,13.75-34.59,21.19-51.63,2-4.5,5.58-8.6,9.28-12,4.81-4.37,10.32-3.49,12.44,2.56,2.85,8.12,4.31,16.8,5.68,25.35,1.06,6.58,3.22,8.29,9.4,5.76.52-.22,1-.56,1.54-.74,4.27-1.41,9.69-2.95,11.2,2.27.81,2.78-2.37,8.12-5.26,10.3-6.09,4.59-7.5,6.21-6,13.65C508.83,518,502.7,525.12,494.29,525Zm-14-44.31-2.23-.11c-4.23,8.5-8.49,17-12.65,25.52a8.25,8.25,0,0,0-.61,3.33c-.09,3.65,2.56,5.62,5.43,3.55,5.2-3.75,10-8.1,14.85-12.3a3,3,0,0,0,.87-2.45C484.15,492.33,482.19,486.51,480.28,480.67Z" transform="translate(0 -40)"/><path class="cls-1" d="M714.45,621.14c-.77,2.31-1.9,4.15-1.92,6,0,5.86-4,6-8.15,6.06-4.81.08-8.55-1.91-9-6.76a19.69,19.69,0,0,1,1.92-10.29c2.62-5.24,6.13-10,9.45-14.91,3.09-4.53,7-5.09,11.07-1.42a31.88,31.88,0,0,1,5.75,7c8.3,13.63,16.44,27.35,24.59,41.07a39.21,39.21,0,0,1,2.8,5.57c1.67,4.27,4.7,6.28,9.26,6,.57,0,1.14,0,1.71-.08,5.37-.55,10.44,0,13.42,5.23,2.17,3.78-.07,11.66-4.63,15.47-6.28,5.23-12.58,10.6-19.6,14.65-2.64,1.52-8,.59-10.87-1.18-2.56-1.56-3.49-5.82-5-8.94a1.64,1.64,0,0,1,.53-1.48c7.88-5.23,3.32-11.6.95-17-6.4-14.57-13.5-28.83-20.35-43.19C716.1,622.48,715.55,622.18,714.45,621.14Z" transform="translate(0 -40)"/><path class="cls-1" d="M697.84,731.54c-5.48.29-9-1-10.24-5.33-1.1-3.9-2.33-8,2.56-11,3.94-2.43,3.51-6.79,1.77-10.28q-10.74-21.42-22.08-42.53c-2.41-4.46-4.07-3.81-7.74-.53-2.47,2.21-6.42,2.77-9.71,4.07-.86-2.9-2.39-5.78-2.46-8.69-.17-8,5.33-13.67,9.82-19.43,3.32-4.25,10.42-2.9,13.57,2.37,8.78,14.7,17.34,29.53,25.94,44.34a10.79,10.79,0,0,1,1.26,3.72c.8,5.38,4.43,7.74,9.23,8.76,2,.43,4.17.31,6.25.55,9.41,1.1,13.54,9.51,7,16.22s-14.52,11.58-22,17.09A5.88,5.88,0,0,1,697.84,731.54Z" transform="translate(0 -40)"/><path class="cls-1" d="M737.3,495.45a22,22,0,0,0-.53,3.45c.34,8.31-.38,9.11-8.71,9.46-22.71,1-41-26.24-31-46.39.88-1.78,3.56-3.4,5.62-3.72,11-1.7,19.07,3.83,25.86,11.52,7.3,8.28,14.13,17,21.3,25.36a110.4,110.4,0,0,0,8.36,8.54c9.39,8.87,9.36,20.27,8.4,31.79-.13,1.64-2.16,3.56-3.8,4.55-5.69,3.4-17.48,3-21.4-2-2.5-3.2-2.12-8.69-2.73-13.19,0-.22,2.77-1,4.29-1.21,2.39-.25,4.93.25,7.18-.38,1.22-.34,3-2.5,2.78-3.57-1.43-8.8-4.75-16.76-11.85-22.63C740.26,496.31,739.05,496.14,737.3,495.45Zm-15.47.35a8.87,8.87,0,0,0,8.66-11.12c-2.33-8.18-8.75-12.16-16.07-14.85-2.43-.89-6.8-1.71-7.68-.57a17.2,17.2,0,0,0-3.64,10.13C703.3,485.48,715.77,495.74,721.83,495.8Z" transform="translate(0 -40)"/><path class="cls-1" d="M583.3,412.44c6.15,2.52,10.21-.37,14.81-2.94,16.62-9.25,33.42-6.2,49.93.61,5.49,2.26,6.16,7.52,5.48,12.6-.7,5.27-4.88,6.83-9.57,7.26-1.9.18-3.8.3-5.7.32-9.66.1-18.37,1.43-27.23,7.07-14.83,9.43-30.52,4.49-45.07-2.7-2.9-1.43-5.07-5.2-6.58-8.36-2.09-4.42,0-8.08,4.5-9.38C570.4,415,577.12,413.83,583.3,412.44Zm1.3,7.8,0,.3a40.3,40.3,0,0,0-6.78.09c-1.51.27-3.84,1.27-4,2.27a6.86,6.86,0,0,0,1.65,5c3.43,4.13,18.6,7.29,22.9,4.31,2.35-1.63,3.46-5.05,5.14-7.66-2.35-1-4.62-2.36-7.07-2.85C592.52,420.87,588.53,420.68,584.6,420.24Zm35-9.83c-.1.32-.21.63-.31.95-1,0-2.05-.32-2.8.06-2.14,1.07-5.94,2.67-5.82,3.64.35,2.6,2,6.77,3.82,7.12,5.61,1.09,11.52.94,17.3.74a5.21,5.21,0,0,0,3.83-3.28c.24-1.4-1.06-4-2.35-4.57C628.91,413.16,624.22,411.91,619.64,410.41Z" transform="translate(0 -40)"/><path class="cls-1" d="M736.72,797.24c9.94,4.51,16.4-5.85,26.55-5l-6.42,14.83c3.68-2.83,6.74-5.81,10.35-7.77,2.88-1.56,6.43-1.88,9.68-2.76-1.62,3.34-2.39,7.77-5,9.8-9.6,7.46-19.82,14.12-29.81,21.08-3,2.06-5.75,4.52-9,6-1.84.87-4.4.25-6.64.3.92-1.88,1.51-4,2.83-5.57,3.57-4.17,7.68-7.9,11.08-12.19,1.2-1.51,1-4.14,1.73-7.73-2.94,1.21-4.5,2.32-6.14,2.44-4.3.32-9,1.15-12.78-.22-1.38-.5-1.9-7.11-.73-10.13,2.07-5.36,4.95-10.85,8.88-15a303.23,303.23,0,0,1,27.48-25.69c3.43-2.8,9-3.48,13.66-4,1.76-.19,5.59,3,5.48,4.35-.26,3.48-1.41,7.66-3.77,10s-7.66,4.81-9.84,3.68c-6.93-3.59-11.62-.46-16.72,3C740.54,781.69,736.9,788.36,736.72,797.24Z" transform="translate(0 -40)"/><path class="cls-1" d="M444.76,809.33c2,1.31,4,2.67,6,3.91q13.41,8.09,26.88,16.11c.48.29,1.3.51,1.4.9.64,2.42,1.11,4.87,1.64,7.31-2.05.1-4.5,1-6.1.17-6.6-3.33-13-7.14-19.39-10.83-8.9-5.1-17.87-10.09-26.6-15.46-2.29-1.41-5.81-5.18-5.4-5.89,1.64-2.8,4.29-6.09,7.18-6.85,6-1.57,10.19-4.93,13.71-9.53a56.92,56.92,0,0,0,4.1-6.81c1.68-3,3-6.17,5-8.94,2.64-3.7,6.2-6.43,11.12-5.34s7,4.67,7.89,9.37c2.26,12.11-7.67,25.64-21.3,28.88L445,807.76Z" transform="translate(0 -40)"/><path class="cls-1" d="M412,511.56c-2.66,2.35-4.2,4.41-6.25,5.34-2.55,1.15-5.53,1.37-8.32,2,0-2.87-.58-5.89.14-8.57.53-2,2.64-3.62,4.18-5.27,3.11-3.34,6.2-6.71,9.5-9.86,4.68-4.47,10.59-3.31,11.79,2.94,2.46,12.81,4.27,25.77,5.72,38.74.66,5.87,1.62,7,7.62,6.29,3.73-.42,7.61.52,11.42.86-1.6,3.2-2.39,7.55-5,9.39-9.5,6.78-19.49,12.92-29.6,18.74-1.24.71-6.3-1.94-6.28-3,.05-3.06,1-8,3-8.81,11.35-4.38,8.38-12.78,6.93-21C415.26,530.63,413.75,521.86,412,511.56Z" transform="translate(0 -40)"/><path class="cls-1" d="M777.35,492.94c9.09-3.56,12.09-1.44,12.13,8.05a70.59,70.59,0,0,1-.06,8c-.53,4.94-4.53,6.69-8.57,3.77a23.51,23.51,0,0,1-4.05-4c-13.79-16.44-27.44-33-41.44-49.28-2-2.32-5.69-3.18-8.59-4.72-2.69-1.42-7.18-2.41-7.65-4.36-.71-3,.66-7.06,2.46-9.81,2.12-3.24,5.52-5.71,8.61-8.21,3.39-2.75,7.1-1.8,8.73,2.33,1,2.42,1.82,5.24,1.5,7.73-.81,6.3,2,10.66,6,15.08C756.93,469.19,767.13,481.2,777.35,492.94Z" transform="translate(0 -40)"/><path class="cls-1" d="M550.56,879.64c2.75-2.29,4.4-4.7,6.55-5.29,10.43-2.87,20.91-5.69,31.54-7.66,9.21-1.71,17.18,1.09,23.15,9,4.37,5.76,16.05,5,20-1,3.54-5.31,16.83-6.2,20.41-1.07.81,1.17.41,4.42-.65,5.42-3,2.83-6.29,5.73-10,7.25-12.77,5.22-26.22,5.56-39.75,4a13.64,13.64,0,0,1-5.24-2.07c-2.67-1.59-4.06-3.47-2.29-7,2.37-4.72,1-7.12-4.11-7.08-8.52.06-17.13.31-24.58,5.62C561.42,882.71,556.86,882.91,550.56,879.64Z" transform="translate(0 -40)"/><path class="cls-1" d="M589.87,395,583,392.76c4.52-5.27,10.36-5,31.41,1.11-2.64,4.56-6.79,6.29-11.57,7.22q-23.21,4.53-46.38,9.22c-6.79,1.36-7.68,2.89-5,10.35-3.5-.36-6.66-.08-9.33-1.09a168,168,0,0,1-16-7.35c-1.13-.56-2.55-2.05-2.5-3.06,0-1.2,1.32-2.68,2.46-3.41a7,7,0,0,1,4.33-1.05c15.1,2.16,29.25-3.07,43.75-5.55,5.31-.91,10.55-2.17,15.83-3.27C589.94,395.57,589.91,395.26,589.87,395Z" transform="translate(0 -40)"/><path class="cls-1" d="M1380.87,703.48c-4.85,13.5-9.65,27-14.57,40.47a38.73,38.73,0,0,0,.58,28.92c2.85,7,5.61,14.12,7.88,21.35,10.36,33,20.9,65.93,30.59,99.11,4.24,14.51,12.58,25.38,24.37,34.06,6.4,4.71,13,9.11,19.19,14.41-9.5-3.63-19.15-6.93-28.46-11-7.49-3.27-13.53-1.4-19.62,3.1-20.64,15.27-41.21,30.64-62.11,45.54-18.76,13.36-38,26-56.87,39.23-12.25,8.55-21.52,19.05-22.83,35.05-.63,7.69-2.75,15.26-5.15,22.9q-2.36-17.85-4.71-35.69c-1.89-14.21-8.25-26.14-19.27-35.19-26.91-22.11-54.92-43-80.74-66.27-13.91-12.56-28-13.27-44.64-11.26-15.18,1.83-30.59,1.66-45.9,2.37-.09-.73-.19-1.46-.28-2.18,4.33-1.59,8.74-3,13-4.78,11.7-5,23.41-10,35-15.33,8.47-3.91,13.57-10.46,17-19.52,14.75-39.12,30.31-77.95,45.38-116.95a16.2,16.2,0,0,0,.44-8.69c-2.76-13.17-10.51-23.9-17.87-34.74s-14.89-21.16-22-32.2c1,.81,2.14,1.56,3.1,2.46,14.23,13.22,28.31,26.59,42.68,39.64,8,7.28,18.54,8.48,28.63,10.06a135.7,135.7,0,0,0,20.46,1.38c35.23.13,70.46,0,105.69.09,3,0,6,.52,9,.68,9.56.5,15-5.61,19.47-12.71,6-9.47,11.69-19.15,17.54-28.73,1.27-2.07,2.64-4.08,4-6.11Zm-113,58.9v-1.19c-16.36,0-32.73.23-49.09-.06-18.76-.34-32.91,8.82-39.68,26.4-2.93,7.62-5.6,15.34-8.59,22.94-8.42,21.38-16.43,42.94-25.6,64-7.3,16.76-7.68,39.43,13.58,51.06a18.66,18.66,0,0,1,2.79,2c20.53,17,41.16,33.85,61.52,51,8.61,7.26,17,14.59,27.86,18.49,14.09,5.09,27.22,4.54,38.81-6.17a36.08,36.08,0,0,1,4.71-3.2c28-18.55,57.55-34.89,83.1-57.17,15.47-13.49,20.35-28.09,14.15-47.65-9.19-29-18.34-57.94-27.19-87-6.26-20.55-22.94-33.4-44.4-33.44C1302.47,762.35,1285.15,762.38,1267.82,762.38Z" transform="translate(0 -40)"/><path class="cls-1" d="M1330.85,1021.48c8.09-6.76,15.62-13.68,23.82-19.67,5-3.65,10.9-6.19,16.63-8.68,9.08-4,17.35,1.75,17.32,11.58a21.4,21.4,0,0,1-5.92,15.5,125.91,125.91,0,0,1-36,26.83c-9.1,4.49-18.12,3.36-27-.72a8.17,8.17,0,0,1-3.77-4c-3.85-9.57-5-18.91,1.68-28.1a102.06,102.06,0,0,1,36.5-31.29c.68-.34,1.47-1.07,2-.92,2.47.63,6.1.82,7,2.46,1.58,2.81-.56,5.08-3.77,6.29-11,4.16-19.45,11.8-26.87,20.61C1330.16,1014.32,1327.8,1017.84,1330.85,1021.48Zm11.77,11.82c.64-.18,2.55-.23,3.78-1.17q10.17-7.77,20-16a9.55,9.55,0,0,0,2.61-4.28c1.4-4.17-.19-6-4.38-4.87a46.71,46.71,0,0,0-27.1,19.53C1334.69,1030.81,1336.26,1033.14,1342.62,1033.3Z" transform="translate(0 -40)"/><path class="cls-1" d="M1118.24,817.76a67.57,67.57,0,0,1-15.93,41.17c-7.55,9-17.21,13.44-29.26,12.08-6-.68-10.19-3.61-11.83-9.2-6.86-23.45-3.5-48,15.33-65.74,7.09-6.66,15.89-8.09,24.82-8,5.62.06,10.1,4.13,11.91,9.43C1115.51,804.05,1116.64,811,1118.24,817.76Zm-50.87,18.5c.18,4.5.51,10.82,6.83,14.14,6.88,3.62,13.65,2.52,19.93-1.85,8.9-6.18,14.25-19.87,11.9-30.3-3-13.32-15.46-17.7-26.26-9.4C1071.26,815.4,1067.5,824.06,1067.37,836.26Z" transform="translate(0 -40)"/><path class="cls-1" d="M1124.56,1004.31c12.87,15.49,31.87,23.46,42,41.24-5.62,2.62-9.47.9-12.58-1.81-16.36-14.26-32.57-28.71-48.74-43.19-1.13-1-2.41-3-2.09-4.14s2.54-2.43,3.93-2.43c12,0,23.91,0,35.83.76,2.9.17,5.77,2.68,8.45,4.43,4.57,3,9.13,4.35,14.47,1.86,3.15-1.48,3.58-3.39,2.46-6.41-2.58-6.91-13.21-14.88-20.59-15.19-4-.16-8,0-12-.43-7.66-.86-10.44-6.45-6.81-13.61,21,4.56,39.82,12.67,51,32.7,2.68,4.83,5.82,10,2,15.44-4,5.69-10.4,4.25-15.77,3a51.22,51.22,0,0,1-14.49-6.3A40.72,40.72,0,0,0,1124.56,1004.31Z" transform="translate(0 -40)"/><path class="cls-1" d="M1215.82,691.74c.43-2.42.78-4.42,1.23-7l13.73,1c1.13-5,1.25-10.11,3.54-13.9,1.2-2,6.24-2.3,9.5-2.19,6.46.21,7.43,2.51,7.22,15,15.54,1.29,30.92,4.58,46.81,2.83,3.32-.37,8.8,1.37,10.06,3.81,1.92,3.73-1.55,7.35-5.49,9.18-14.41,6.69-28.81,13.43-43.33,19.88a25.77,25.77,0,0,1-8.91,1.62c-9.37.49-14.26-3.94-14.82-13.1-.76-12.2-.76-12.2-12.72-15.25C1220.63,693.14,1218.65,692.54,1215.82,691.74Zm34.67,4.72c.27,2.72.49,5.16.75,7.59.6,5.65,2.91,7.16,8.34,5.14,7.25-2.71,14.5-5.44,21.58-8.56,1.77-.77,2.89-3,4.3-4.62-1.87-.84-3.81-2.52-5.62-2.39C1270.28,694.29,1260.75,695.42,1250.49,696.46Z" transform="translate(0 -40)"/><path class="cls-1" d="M1432.39,855.68c-6.84,9.06-11.21,9.58-17.34.51-10.78-15.94-16.46-33.74-14.75-53.25.68-7.79,3.39-10.2,10.49-12.14a5.94,5.94,0,0,0,3.07-3.16c3.74-8.23,9.1-9.1,15-1.8,7.06,8.72,11,19,13.11,30,2.2,11.55,4,23.18,6.09,34.75.86,4.73.35,9-4.35,11.18s-7.2-1.76-9.93-4.59Zm6.58-19.6,1-.49c-2.79-10-5.41-20-8.54-29.79-.59-1.87-3.21-3.09-4.89-4.6-1.22,2.14-3.57,4.33-3.47,6.41.56,11.77,2.27,23.39,7.8,34,.62,1.2,2.22,2.92,3,2.75a6.38,6.38,0,0,0,3.71-3C1438.51,839.89,1438.56,837.89,1439,836.08Zm-15.07,1.58c-.89-11.3-2.75-20.77-9.57-28.41-1-1.11-3.34-2.41-4.15-2a5.76,5.76,0,0,0-2.63,4.33c.33,9.57,1.34,19.1,7.44,27,1.54,2,4.16,3.18,6.28,4.74Z" transform="translate(0 -40)"/><path class="cls-1" d="M1141.35,754.91c.72,5.82-3.11,14-8.81,17a6.83,6.83,0,0,1-4.78,0c-11.91-3.91-23.77-8-35.63-12-4.89-1.68-6.82-6.71-4.83-12.14,2.3-6.24,5.91-8.13,11.48-6.34C1112.67,745.93,1126.6,750.26,1141.35,754.91Z" transform="translate(0 -40)"/><path class="cls-1" d="M1415.6,986c2.16,2,3.78,2.87,4.26,4.16.33.9-.58,2.82-1.51,3.53a75,75,0,0,1-10.86,7.3c-1.46.75-3.83-.28-5.79-.5.37-1.66.19-4,1.23-4.88C1406.8,992.23,1411.08,989.34,1415.6,986Z" transform="translate(0 -40)"/><path d="M1189.08,281.43c-13.81.21-23.89-8.64-24.15-21.2-.31-14.51,12-27.86,26-28.13,15.31-.3,26.35,9.55,26.6,23.73C1217.72,269.17,1204.37,281.2,1189.08,281.43Z" transform="translate(0 -40)"/><path d="M1188.57,170.58c13.63-.06,24,7.9,25.76,18.52a12.33,12.33,0,0,1,.06,4.49c-1.85,8.37-13.87,17.12-24.38,17.86-9.25.65-19.3-5.25-22.67-13.3-4.24-10.17,1.61-22.05,12.9-25.77A65.36,65.36,0,0,1,1188.57,170.58Z" transform="translate(0 -40)"/><path d="M271.25,130c1.47-13.47,3.12-26.42,9-38.5,10.84-22.38,30-24,43.69-3.27,12.69,19.24,15.77,40.95,13.69,63.39-.76,8.22-3.17,16.37-5.69,24.28a40.08,40.08,0,0,1-7,12.28c-8.88,11.22-21.19,11.94-31.67,2.12a53.49,53.49,0,0,1-15.05-25.81C275.16,153.2,273.49,141.53,271.25,130Z" transform="translate(0 -40)"/><path d="M88.33,107.38C89.1,97,100,87.9,109.34,89.92c4,.87,5.68,3.23,6.06,7,.94,9.36-7.05,20.6-16.21,22.76-3.75.88-6.34-.66-7.82-4C90.16,113.05,89.33,110.18,88.33,107.38Z" transform="translate(0 -40)"/><path d="M138.72,77.34c-4.94-.12-10.26-5.93-10.17-11.11s6.39-10.66,12.08-10.76c3.46,0,8.61,6,8.61,10.07C149.24,70.7,143.23,77.45,138.72,77.34Z" transform="translate(0 -40)"/><path d="M534.21,723.57c-11.61-1.11-18.46-8.68-17.26-20.68,1.61-16.15,9.58-29.25,22.15-39.06,11-8.56,24.93-2.7,26,11.07,1.28,16.64-3.26,31.8-17.28,42.38C543.91,720.22,538.77,721.52,534.21,723.57Z" transform="translate(0 -40)"/><path d="M480.28,480.67c1.91,5.84,3.87,11.66,5.66,17.54a3,3,0,0,1-.87,2.45c-4.87,4.2-9.65,8.55-14.85,12.3-2.87,2.07-5.52.1-5.43-3.55a8.25,8.25,0,0,1,.61-3.33c4.16-8.53,8.42-17,12.65-25.52Z" transform="translate(0 -40)"/><path d="M721.83,495.8c-6.06-.06-18.53-10.32-18.73-16.41a17.2,17.2,0,0,1,3.64-10.13c.88-1.14,5.25-.32,7.68.57,7.32,2.69,13.74,6.67,16.07,14.85A8.87,8.87,0,0,1,721.83,495.8Z" transform="translate(0 -40)"/><path d="M584.6,420.24c3.93.44,7.92.63,11.79,1.41,2.45.49,4.72,1.87,7.07,2.85-1.68,2.61-2.79,6-5.14,7.66-4.3,3-19.47-.18-22.9-4.31a6.86,6.86,0,0,1-1.65-5c.19-1,2.52-2,4-2.27a40.3,40.3,0,0,1,6.78-.09Z" transform="translate(0 -40)"/><path d="M619.64,410.41c4.58,1.5,9.27,2.75,13.67,4.66,1.29.57,2.59,3.17,2.35,4.57a5.21,5.21,0,0,1-3.83,3.28c-5.78.2-11.69.35-17.3-.74-1.78-.35-3.47-4.52-3.82-7.12-.12-1,3.68-2.57,5.82-3.64.75-.38,1.85-.06,2.8-.06C619.43,411,619.54,410.73,619.64,410.41Z" transform="translate(0 -40)"/><path d="M1267.82,762.38c17.33,0,34.65,0,52,0,21.46,0,38.14,12.89,44.4,33.44,8.85,29.06,18,58,27.19,87,6.2,19.56,1.32,34.16-14.15,47.65-25.55,22.28-55.06,38.62-83.1,57.17a36.08,36.08,0,0,0-4.71,3.2c-11.59,10.71-24.72,11.26-38.81,6.17-10.81-3.9-19.25-11.23-27.86-18.49-20.36-17.18-41-34-61.52-51a18.66,18.66,0,0,0-2.79-2c-21.26-11.63-20.88-34.3-13.58-51.06,9.17-21.06,17.18-42.62,25.6-64,3-7.6,5.66-15.32,8.59-22.94,6.77-17.58,20.92-26.74,39.68-26.4,16.36.29,32.73.06,49.09.06Zm6.65,131.76c8.08-12.29,16.13-22.35,30.23-26.11,5.88-1.57,11.49-5.07,16.53-8.66,7.64-5.44,11-13.29,10.27-22.83-1.91-26.11-33.19-44.31-56.42-32-7.52,4-13.81,10.52-20.11,16.47-3.67,3.48-2.72,10.15.88,13.34,3.1,2.75,14,3.63,15.5.57,3.26-6.65,9.84-8.57,15.05-12.49,4-3,7.83-2.94,11.64-.7a45.57,45.57,0,0,1,9,6.94c5.41,5.4,5.93,8.94.17,13.88a85.94,85.94,0,0,1-20.39,13.2c-17.63,7.91-28,22.15-34.48,39.17-3.81,10-.1,20,13.22,19.76,12.15-.18,24.31,1.23,36.48,1.76,7.6.34,15.29,1,22.8.2,3.85-.42,8.74-2.89,10.74-6,2.57-4-1.33-8-4.72-10.43a19.92,19.92,0,0,0-9.57-3.88C1306.09,895.29,1290.89,894.85,1274.47,894.14Zm-48.14-37.34h1.79q0-20.52,0-41c0-5.49-4.94-13.28-8.9-13.25-5.78,0-6.78,5.3-8.67,9.28a13.76,13.76,0,0,0-1.18,5.51c-.57,27-1.26,54-1.35,80.93,0,4.2,2.31,8.69,4.45,12.55,2,3.52,5.85,3.64,7.92.26,2.58-4.23,5.42-9.08,5.69-13.79C1226.82,883.8,1226.33,870.29,1226.33,856.8Z" transform="translate(0 -40)"/><path d="M1342.62,1033.3c-6.36-.16-7.93-2.49-5.06-6.75a46.71,46.71,0,0,1,27.1-19.53c4.19-1.15,5.78.7,4.38,4.87a9.55,9.55,0,0,1-2.61,4.28q-9.86,8.18-20,16C1345.17,1033.07,1343.26,1033.12,1342.62,1033.3Z" transform="translate(0 -40)"/><path d="M1067.37,836.26c.13-12.2,3.89-20.86,12.4-27.41,10.8-8.3,23.26-3.92,26.26,9.4,2.35,10.43-3,24.12-11.9,30.3-6.28,4.37-13.05,5.47-19.93,1.85C1067.88,847.08,1067.55,840.76,1067.37,836.26Z" transform="translate(0 -40)"/><path d="M1250.49,696.46c10.26-1,19.79-2.17,29.35-2.84,1.81-.13,3.75,1.55,5.62,2.39-1.41,1.58-2.53,3.85-4.3,4.62-7.08,3.12-14.33,5.85-21.58,8.56-5.43,2-7.74.51-8.34-5.14C1251,701.62,1250.76,699.18,1250.49,696.46Z" transform="translate(0 -40)"/><path d="M1439,836.08c-.41,1.81-.46,3.81-1.33,5.36a6.38,6.38,0,0,1-3.71,3c-.8.17-2.4-1.55-3-2.75-5.53-10.66-7.24-22.28-7.8-34-.1-2.08,2.25-4.27,3.47-6.41,1.68,1.51,4.3,2.73,4.89,4.6,3.13,9.84,5.75,19.84,8.54,29.79Z" transform="translate(0 -40)"/><path d="M1423.9,837.66l-2.63,5.73c-2.12-1.56-4.74-2.74-6.28-4.74-6.1-7.93-7.11-17.46-7.44-27a5.76,5.76,0,0,1,2.63-4.33c.81-.45,3.16.85,4.15,2C1421.15,816.89,1423,826.36,1423.9,837.66Z" transform="translate(0 -40)"/><path class="cls-1" d="M1274.47,894.14c16.42.71,31.62,1.15,46.77,2.16a19.92,19.92,0,0,1,9.57,3.88c3.39,2.42,7.29,6.42,4.72,10.43-2,3.11-6.89,5.58-10.74,6-7.51.81-15.2.14-22.8-.2-12.17-.53-24.33-1.94-36.48-1.76-13.32.19-17-9.78-13.22-19.76,6.5-17,16.85-31.26,34.48-39.17a85.94,85.94,0,0,0,20.39-13.2c5.76-4.94,5.24-8.48-.17-13.88a45.57,45.57,0,0,0-9-6.94c-3.81-2.24-7.67-2.29-11.64.7-5.21,3.92-11.79,5.84-15.05,12.49-1.5,3.06-12.4,2.18-15.5-.57-3.6-3.19-4.55-9.86-.88-13.34,6.3-6,12.59-12.5,20.11-16.47,23.23-12.28,54.51,5.92,56.42,32,.7,9.54-2.63,17.39-10.27,22.83-5,3.59-10.65,7.09-16.53,8.66C1290.6,871.79,1282.55,881.85,1274.47,894.14Z" transform="translate(0 -40)"/><path class="cls-1" d="M1226.33,856.8c0,13.49.49,27-.26,40.45-.27,4.71-3.11,9.56-5.69,13.79-2.07,3.38-6,3.26-7.92-.26-2.14-3.86-4.46-8.35-4.45-12.55.09-27,.78-54,1.35-80.93a13.76,13.76,0,0,1,1.18-5.51c1.89-4,2.89-9.23,8.67-9.28,4,0,8.9,7.76,8.9,13.25q0,20.52,0,41Z" transform="translate(0 -40)"/></svg>